<?xml version="1.0" standalone="no"?>
<!DOCTYPE svg PUBLIC "-//W3C//DTD SVG 20010904//EN"
 "http://www.w3.org/TR/2001/REC-SVG-20010904/DTD/svg10.dtd">
<svg version="1.0" xmlns="http://www.w3.org/2000/svg"
 width="205.000000pt" height="205.000000pt" viewBox="0 0 205.000000 205.000000"
 preserveAspectRatio="xMidYMid meet">
<metadata>
Created by potrace 1.14, written by Peter Selinger 2001-2017
</metadata>
<g transform="translate(0.000000,205.000000) scale(0.100000,-0.100000)"
fill="#000000" stroke="none">
<path d="M190 1782 c0 -5 -10 -12 -23 -16 -13 -3 -33 -24 -47 -48 l-25 -43 0
-640 c-1 -610 0 -642 18 -676 27 -52 86 -83 140 -75 23 4 48 7 55 8 6 1 12 5
12 10 0 5 4 7 9 3 5 -3 12 -1 16 4 3 6 40 28 83 49 42 22 111 57 152 78 41 21
77 41 80 44 6 7 43 22 49 20 2 -1 7 2 10 7 3 4 33 22 66 39 129 66 219 115
232 125 7 7 13 8 13 3 0 -5 4 -4 8 1 4 6 36 25 71 43 l64 33 38 -27 c22 -15
39 -31 39 -37 0 -6 3 -7 7 -4 3 4 16 -5 29 -18 13 -14 26 -25 29 -25 4 0 12
-6 19 -12 7 -7 27 -24 45 -38 18 -14 38 -30 44 -36 49 -44 324 -257 341 -264
12 -4 44 -7 71 -5 45 3 54 8 88 46 24 27 37 50 34 61 -3 10 -2 18 1 18 4 0 7
197 6 438 0 485 -1 487 -65 533 -45 32 -122 32 -166 1 -17 -12 -33 -22 -36
-22 -3 0 -85 -49 -182 -110 -97 -60 -181 -110 -186 -110 -5 0 -9 -5 -9 -11 0
-5 -4 -8 -9 -5 -5 4 -11 3 -13 -2 -1 -4 -24 -20 -49 -34 l-46 -27 -89 72 c-49
39 -90 75 -92 79 -2 4 -10 8 -17 8 -7 0 -15 3 -17 8 -2 6 -64 59 -128 109 -88
70 -253 202 -309 248 -21 17 -52 41 -70 55 -18 14 -40 32 -49 40 -10 9 -43 35
-74 59 -46 34 -67 43 -112 48 -36 4 -56 2 -56 -5z m190 -391 c0 -4 13 -15 30
-24 16 -10 35 -24 43 -31 8 -8 72 -61 143 -117 71 -57 134 -108 141 -114 6 -5
56 -46 112 -89 56 -43 101 -83 101 -87 0 -4 -44 -30 -97 -58 -54 -27 -141 -72
-193 -100 -52 -27 -129 -67 -170 -87 -41 -20 -77 -40 -80 -43 -3 -4 -17 -12
-32 -18 l-28 -13 0 400 c0 351 2 399 15 394 8 -4 15 -9 15 -13z m905 -361 c3
1 18 -6 33 -13 15 -8 38 -19 52 -25 14 -5 41 -17 60 -25 60 -25 77 -28 92 -15
13 12 49 34 111 65 15 8 27 19 27 24 0 6 4 8 9 4 5 -3 12 -1 16 5 18 30 23 -8
23 -185 0 -107 -3 -195 -7 -195 -4 0 -17 8 -30 18 -52 39 -136 107 -141 112
-3 3 -25 21 -50 40 -25 19 -52 41 -61 49 -26 25 -59 51 -64 51 -5 0 -38 27
-83 68 -14 12 -28 22 -32 22 -4 0 -10 7 -14 15 -5 14 -2 14 24 0 16 -9 32 -15
35 -15z"/>
</g>
</svg>
