<?xml version="1.0" encoding="UTF-8" standalone="no" ?>
<!DOCTYPE svg PUBLIC "-//W3C//DTD SVG 1.1//EN" "http://www.w3.org/Graphics/SVG/1.1/DTD/svg11.dtd">
<svg xmlns="http://www.w3.org/2000/svg" xmlns:xlink="http://www.w3.org/1999/xlink" version="1.1" width="1000" height="300" viewBox="0 0 1000 300" xml:space="preserve">
<desc>Created with Fabric.js 5.2.4</desc>
<defs>
</defs>
<rect x="0" y="0" width="100%" height="100%" fill="transparent"></rect>
<g transform="matrix(0 0 0 0 0 0)" id="15dccc32-75c1-406a-8722-e9282dd6406e"  >
</g>
<g transform="matrix(1 0 0 1 500 150)" id="47a72812-b6c8-4f1d-a056-52fe90fa0015"  >
<rect style="stroke: none; stroke-width: 1; stroke-dasharray: none; stroke-linecap: butt; stroke-dashoffset: 0; stroke-linejoin: miter; stroke-miterlimit: 4; fill: rgb(255,255,255); fill-rule: nonzero; opacity: 1; visibility: hidden;" vector-effect="non-scaling-stroke"  x="-500" y="-150" rx="0" ry="0" width="1000" height="300" />
</g>
<g transform="matrix(0.52 0 0 0.52 168.14 150)"  >
<path style="stroke: none; stroke-width: 1; stroke-dasharray: none; stroke-linecap: butt; stroke-dashoffset: 0; stroke-linejoin: miter; stroke-miterlimit: 4; fill: rgb(116,240,237); fill-rule: nonzero; opacity: 1;" vector-effect="non-scaling-stroke"  transform=" translate(-391.57, -1183.63)" d="M 543.2660229674 1119.49869196248 C 534.8660229674 1115.49869196248 526.7660229674 1115.69869196248 517.0660229674 1121.89869196248 L 422.8660229674 1179.29869196248 L 474.8660229674 1200.49869196248 L 512.5660229674 1178.19869196248 L 512.5660229674 1251.19869196248 L 267.5660229674 1054.89869196248 C 259.3660229674 1048.29869196248 248.6660229674 1046.89869196248 239.7660229674 1051.29869196248 C 230.2660229674 1055.89869196248 224.5660229674 1065.59869196248 224.5660229674 1077.39869196248 L 224.5660229674 1289.89869196248 C 224.5660229674 1301.69869196248 230.2660229674 1311.49869196248 239.7660229674 1315.99869196248 C 243.2660229674 1317.69869196248 246.9660229674 1318.49869196248 250.6660229674 1318.49869196248 C 255.6660229674 1318.49869196248 260.6660229674 1316.99869196248 265.1660229674 1314.19869196248 L 418.0660229674 1234.29869196248 L 515.4660229674 1312.39869196248 C 520.4660229674 1316.39869196248 526.4660229674 1318.49869196248 532.4660229674 1318.49869196248 C 536.1660229674 1318.49869196248 539.8660229674 1317.69869196248 543.3660229674 1315.99869196248 C 552.8660229674 1311.39869196248 558.5660229674 1301.69869196248 558.5660229674 1289.89869196248 L 558.5660229674 1145.59869196248 C 558.4660229674 1133.79869196248 552.7660229674 1123.99869196248 543.2660229674 1119.49869196248 Z M 270.4660229674 1259.59869196248 L 270.4660229674 1115.99869196248 L 378.9660229674 1202.99869196248 L 270.4660229674 1259.59869196248 Z" stroke-linecap="round" />
</g>
<g transform="matrix(0.54 0 0 0.54 608.89 123.81)"  >
<path style="stroke: none; stroke-width: 1; stroke-dasharray: none; stroke-linecap: butt; stroke-dashoffset: 0; stroke-linejoin: miter; stroke-miterlimit: 4; fill: rgb(255,255,255); fill-rule: nonzero; opacity: 1;" vector-effect="non-scaling-stroke"  transform=" translate(-710.4, -1034.6)" d="M 139.5836800134 1070.98876480422 L 139.5836800134 997.45276480422 L 139.6796800134 997.45276480422 L 175.4876800134 1048.23676480422 L 212.1596800134 997.45276480422 L 212.3516800134 997.45276480422 L 212.3516800134 1070.98876480422 L 198.4316800134 1070.98876480422 L 198.4316800134 1037.29276480422 L 175.3916800134 1070.02876480422 L 175.1996800134 1070.02876480422 L 153.0236800134 1039.40476480422 L 153.0236800134 1070.98876480422 L 139.5836800134 1070.98876480422 Z M 231.0716800134 1035.75676480422 C 231.0716800134 1030.89276480422 231.9996800134 1026.28476480422 233.8556800134 1021.93276480422 C 235.7116800134 1017.58076480422 238.2876800134 1013.72476480422 241.5836800134 1010.36476480422 C 244.8796800134 1007.00476480422 248.7036800134 1004.36476480422 253.0556800134 1002.44476480422 C 257.4076800134 1000.52476480422 262.0796800134 999.56476480422 267.0716800134 999.56476480422 C 271.9996800134 999.56476480422 276.6396800134 1000.52476480422 280.9916800134 1002.44476480422 C 285.3436800134 1004.36476480422 289.1996800134 1007.00476480422 292.5596800134 1010.36476480422 C 295.9196800134 1013.72476480422 298.5436800134 1017.58076480422 300.4316800134 1021.93276480422 C 302.3196800134 1026.28476480422 303.2636800134 1030.89276480422 303.2636800134 1035.75676480422 C 303.2636800134 1040.74876480422 302.3196800134 1045.42076480422 300.4316800134 1049.77276480422 C 298.5436800134 1054.12476480422 295.9196800134 1057.94876480422 292.5596800134 1061.24476480422 C 289.1996800134 1064.54076480422 285.3436800134 1067.11676480422 280.9916800134 1068.97276480422 C 276.6396800134 1070.82876480422 271.9996800134 1071.75676480422 267.0716800134 1071.75676480422 C 262.0796800134 1071.75676480422 257.4076800134 1070.82876480422 253.0556800134 1068.97276480422 C 248.7036800134 1067.11676480422 244.8796800134 1064.54076480422 241.5836800134 1061.24476480422 C 238.2876800134 1057.94876480422 235.7116800134 1054.12476480422 233.8556800134 1049.77276480422 C 231.9996800134 1045.42076480422 231.0716800134 1040.74876480422 231.0716800134 1035.75676480422 Z M 245.4716800134 1035.75676480422 C 245.4716800134 1039.91676480422 246.4476800134 1043.70876480422 248.3996800134 1047.13276480422 C 250.3516800134 1050.55676480422 252.9916800134 1053.27676480422 256.3196800134 1055.29276480422 C 259.6476800134 1057.30876480422 263.3916800134 1058.31676480422 267.5516800134 1058.31676480422 C 271.5836800134 1058.31676480422 275.2156800134 1057.30876480422 278.4476800134 1055.29276480422 C 281.6796800134 1053.27676480422 284.2236800134 1050.55676480422 286.0796800134 1047.13276480422 C 287.9356800134 1043.70876480422 288.8636800134 1039.91676480422 288.8636800134 1035.75676480422 C 288.8636800134 1031.46876480422 287.9036800134 1027.61276480422 285.9836800134 1024.18876480422 C 284.0636800134 1020.76476480422 281.4716800134 1018.04476480422 278.2076800134 1016.02876480422 C 274.9436800134 1014.01276480422 271.2636800134 1013.00476480422 267.1676800134 1013.00476480422 C 263.0716800134 1013.00476480422 259.3916800134 1014.01276480422 256.1276800134 1016.02876480422 C 252.8636800134 1018.04476480422 250.2716800134 1020.76476480422 248.3516800134 1024.18876480422 C 246.4316800134 1027.61276480422 245.4716800134 1031.46876480422 245.4716800134 1035.75676480422 Z M 381.4076800134 1000.33276480422 L 381.4076800134 1070.98876480422 L 367.4876800134 1070.98876480422 L 367.4876800134 1042.28476480422 L 335.9036800134 1042.28476480422 L 335.9036800134 1070.98876480422 L 321.9836800134 1070.98876480422 L 321.9836800134 1000.33276480422 L 335.9036800134 1000.33276480422 L 335.9036800134 1028.84476480422 L 367.4876800134 1028.84476480422 L 367.4876800134 1000.33276480422 L 381.4076800134 1000.33276480422 Z M 396.4796800134 1070.98876480422 L 428.3516800134 997.54876480422 L 429.1196800134 997.54876480422 L 460.9916800134 1070.98876480422 L 444.8636800134 1070.98876480422 L 439.3916800134 1057.16476480422 L 415.9676800134 1057.16476480422 L 410.2076800134 1070.98876480422 L 396.4796800134 1070.98876480422 Z M 420.8636800134 1045.45276480422 L 434.7836800134 1045.45276480422 L 427.9676800134 1028.26876480422 L 420.8636800134 1045.45276480422 Z M 476.0636800134 1070.98876480422 L 476.0636800134 997.45276480422 L 476.1596800134 997.45276480422 L 511.9676800134 1048.23676480422 L 548.6396800134 997.45276480422 L 548.8316800134 997.45276480422 L 548.8316800134 1070.98876480422 L 534.9116800134 1070.98876480422 L 534.9116800134 1037.29276480422 L 511.8716800134 1070.02876480422 L 511.6796800134 1070.02876480422 L 489.5036800134 1039.40476480422 L 489.5036800134 1070.98876480422 L 476.0636800134 1070.98876480422 Z M 571.8716800134 1070.98876480422 L 571.8716800134 997.45276480422 L 571.9676800134 997.45276480422 L 607.7756800134 1048.23676480422 L 644.4476800134 997.45276480422 L 644.6396800134 997.45276480422 L 644.6396800134 1070.98876480422 L 630.7196800134 1070.98876480422 L 630.7196800134 1037.29276480422 L 607.6796800134 1070.02876480422 L 607.4876800134 1070.02876480422 L 585.3116800134 1039.40476480422 L 585.3116800134 1070.98876480422 L 571.8716800134 1070.98876480422 Z M 667.6796800134 1000.33276480422 L 715.8716800134 1000.33276480422 L 715.8716800134 1013.77276480422 L 681.5996800134 1013.77276480422 L 681.5996800134 1028.84476480422 L 711.9356800134 1028.84476480422 L 711.9356800134 1042.28476480422 L 681.5996800134 1042.28476480422 L 681.5996800134 1057.54876480422 L 717.2156800134 1057.54876480422 L 717.2156800134 1070.98876480422 L 667.6796800134 1070.98876480422 L 667.6796800134 1000.33276480422 Z M 736.4156800134 1070.98876480422 L 736.4156800134 1000.33276480422 L 757.5356800134 1000.33276480422 C 764.6396800134 1000.33276480422 770.6876800134 1001.38876480422 775.6796800134 1003.50076480422 C 780.6716800134 1005.61276480422 784.6876800134 1008.42876480422 787.7276800134 1011.94876480422 C 790.7676800134 1015.46876480422 792.9916800134 1019.40476480422 794.3996800134 1023.75676480422 C 795.8076800134 1028.10876480422 796.5116800134 1032.49276480422 796.5116800134 1036.90876480422 C 796.5116800134 1042.15676480422 795.5676800134 1046.87676480422 793.6796800134 1051.06876480422 C 791.7916800134 1055.26076480422 789.2156800134 1058.84476480422 785.9516800134 1061.82076480422 C 782.6876800134 1064.79676480422 778.9116800134 1067.06876480422 774.6236800134 1068.63676480422 C 770.3356800134 1070.20476480422 765.7916800134 1070.98876480422 760.9916800134 1070.98876480422 L 736.4156800134 1070.98876480422 Z M 750.3356800134 1057.54876480422 L 758.5916800134 1057.54876480422 C 765.6316800134 1057.54876480422 771.3116800134 1055.72476480422 775.6316800134 1052.07676480422 C 779.9516800134 1048.42876480422 782.1116800134 1043.05276480422 782.1116800134 1035.94876480422 C 782.1116800134 1031.34076480422 781.3596800134 1027.58076480422 779.8556800134 1024.66876480422 C 778.3516800134 1021.75676480422 776.4956800134 1019.50076480422 774.2876800134 1017.90076480422 C 772.0796800134 1016.30076480422 769.8236800134 1015.19676480422 767.5196800134 1014.58876480422 C 765.2156800134 1013.98076480422 763.2636800134 1013.67676480422 761.6636800134 1013.67676480422 L 750.3356800134 1013.67676480422 L 750.3356800134 1057.54876480422 Z M 908.5436800134 1063.88476480422 C 907.7116800134 1064.78076480422 906.3996800134 1065.69276480422 904.6076800134 1066.62076480422 C 902.8156800134 1067.54876480422 900.7516800134 1068.39676480422 898.4156800134 1069.16476480422 C 896.0796800134 1069.93276480422 893.6956800134 1070.55676480422 891.2636800134 1071.03676480422 C 888.8316800134 1071.51676480422 886.5276800134 1071.75676480422 884.3516800134 1071.75676480422 C 876.7356800134 1071.75676480422 870.1116800134 1070.28476480422 864.4796800134 1067.34076480422 C 858.8476800134 1064.39676480422 854.5116800134 1060.36476480422 851.4716800134 1055.24476480422 C 848.4316800134 1050.12476480422 846.9116800134 1044.26876480422 846.9116800134 1037.67676480422 C 846.9116800134 1031.21276480422 847.8876800134 1025.59676480422 849.8396800134 1020.82876480422 C 851.7916800134 1016.06076480422 854.4476800134 1012.09276480422 857.8076800134 1008.92476480422 C 861.1676800134 1005.75676480422 865.0396800134 1003.40476480422 869.4236800134 1001.86876480422 C 873.8076800134 1000.33276480422 878.3996800134 999.56476480422 883.1996800134 999.56476480422 C 887.7436800134 999.56476480422 891.9036800134 1000.06076480422 895.6796800134 1001.05276480422 C 899.4556800134 1002.04476480422 902.6556800134 1003.27676480422 905.2796800134 1004.74876480422 L 900.7676800134 1017.70876480422 C 899.6156800134 1017.06876480422 898.0796800134 1016.42876480422 896.1596800134 1015.78876480422 C 894.2396800134 1015.14876480422 892.2876800134 1014.62076480422 890.3036800134 1014.20476480422 C 888.3196800134 1013.78876480422 886.5596800134 1013.58076480422 885.0236800134 1013.58076480422 C 877.4076800134 1013.58076480422 871.5516800134 1015.48476480422 867.4556800134 1019.29276480422 C 863.3596800134 1023.10076480422 861.3116800134 1028.81276480422 861.3116800134 1036.42876480422 C 861.3116800134 1040.84476480422 862.3036800134 1044.65276480422 864.2876800134 1047.85276480422 C 866.2716800134 1051.05276480422 869.0396800134 1053.51676480422 872.5916800134 1055.24476480422 C 876.1436800134 1056.97276480422 880.1916800134 1057.83676480422 884.7356800134 1057.83676480422 C 886.7196800134 1057.83676480422 888.5436800134 1057.69276480422 890.2076800134 1057.40476480422 C 891.8716800134 1057.11676480422 893.2796800134 1056.65276480422 894.4316800134 1056.01276480422 L 894.4316800134 1047.46876480422 L 882.2396800134 1047.46876480422 L 882.2396800134 1034.02876480422 L 908.5436800134 1034.02876480422 L 908.5436800134 1063.88476480422 Z M 921.2156800134 1070.98876480422 L 953.0876800134 997.54876480422 L 953.8556800134 997.54876480422 L 985.7276800134 1070.98876480422 L 969.5996800134 1070.98876480422 L 964.1276800134 1057.16476480422 L 940.7036800134 1057.16476480422 L 934.9436800134 1070.98876480422 L 921.2156800134 1070.98876480422 Z M 945.5996800134 1045.45276480422 L 959.5196800134 1045.45276480422 L 952.7036800134 1028.26876480422 L 945.5996800134 1045.45276480422 Z M 1000.7996800134 1070.98876480422 L 1000.7996800134 997.45276480422 L 1000.8956800134 997.45276480422 L 1036.7036800134 1048.23676480422 L 1073.3756800134 997.45276480422 L 1073.5676800134 997.45276480422 L 1073.5676800134 1070.98876480422 L 1059.6476800134 1070.98876480422 L 1059.6476800134 1037.29276480422 L 1036.6076800134 1070.02876480422 L 1036.4156800134 1070.02876480422 L 1014.2396800134 1039.40476480422 L 1014.2396800134 1070.98876480422 L 1000.7996800134 1070.98876480422 Z M 1096.6076800134 1000.33276480422 L 1144.7996800134 1000.33276480422 L 1144.7996800134 1013.77276480422 L 1110.5276800134 1013.77276480422 L 1110.5276800134 1028.84476480422 L 1140.8636800134 1028.84476480422 L 1140.8636800134 1042.28476480422 L 1110.5276800134 1042.28476480422 L 1110.5276800134 1057.54876480422 L 1146.1436800134 1057.54876480422 L 1146.1436800134 1070.98876480422 L 1096.6076800134 1070.98876480422 L 1096.6076800134 1000.33276480422 Z M 1165.3436800134 1000.33276480422 L 1213.5356800134 1000.33276480422 L 1213.5356800134 1013.77276480422 L 1179.2636800134 1013.77276480422 L 1179.2636800134 1028.84476480422 L 1209.5996800134 1028.84476480422 L 1209.5996800134 1042.28476480422 L 1179.2636800134 1042.28476480422 L 1179.2636800134 1057.54876480422 L 1214.8796800134 1057.54876480422 L 1214.8796800134 1070.98876480422 L 1165.3436800134 1070.98876480422 L 1165.3436800134 1000.33276480422 Z M 1234.0796800134 1000.33276480422 L 1247.9996800134 1000.33276480422 L 1247.9996800134 1057.54876480422 L 1281.2156800134 1057.54876480422 L 1281.2156800134 1070.98876480422 L 1234.0796800134 1070.98876480422 L 1234.0796800134 1000.33276480422 Z" stroke-linecap="round" />
</g>
<g transform="matrix(0.29 0 0 0.29 467 188.61)"  >
<path style="stroke: none; stroke-width: 1; stroke-dasharray: none; stroke-linecap: butt; stroke-dashoffset: 0; stroke-linejoin: miter; stroke-miterlimit: 4; fill: rgb(255,255,255); fill-rule: nonzero; opacity: 1;" vector-effect="non-scaling-stroke"  transform=" translate(-850.51, -2107.8)" d="M 270.9113600268 2072.56952960845 L 312.0953600268 2072.56952960845 L 312.0953600268 2081.49752960845 L 280.2233600268 2081.49752960845 L 280.2233600268 2103.57752960845 L 308.1593600268 2103.57752960845 L 308.1593600268 2112.50552960845 L 280.2233600268 2112.50552960845 L 280.2233600268 2141.97752960845 L 270.9113600268 2141.97752960845 L 270.9113600268 2072.56952960845 Z M 345.9833600268 2072.56952960845 C 350.5913600268 2072.56952960845 354.7513600268 2073.38552960845 358.4633600268 2075.01752960845 C 362.1753600268 2076.64952960845 365.1193600268 2079.08152960845 367.2953600268 2082.31352960845 C 369.4713600268 2085.54552960845 370.5593600268 2089.46552960845 370.5593600268 2094.07352960845 C 370.5593600268 2098.04152960845 369.6793600268 2101.88152960845 367.9193600268 2105.59352960845 C 366.1593600268 2109.30552960845 363.1993600268 2112.12152960845 359.0393600268 2114.04152960845 L 376.5113600268 2141.97752960845 L 365.6633600268 2141.97752960845 L 349.2473600268 2116.34552960845 C 348.5433600268 2116.40952960845 347.8073600268 2116.44152960845 347.0393600268 2116.44152960845 L 336.7673600268 2116.44152960845 L 336.7673600268 2141.97752960845 L 327.4553600268 2141.97752960845 L 327.4553600268 2072.56952960845 L 345.9833600268 2072.56952960845 Z M 346.8473600268 2107.41752960845 C 350.5593600268 2107.41752960845 353.4233600268 2106.72952960845 355.4393600268 2105.35352960845 C 357.4553600268 2103.97752960845 358.8793600268 2102.28152960845 359.7113600268 2100.26552960845 C 360.5433600268 2098.24952960845 360.9593600268 2096.31352960845 360.9593600268 2094.45752960845 C 360.9593600268 2092.60152960845 360.5113600268 2090.68152960845 359.6153600268 2088.69752960845 C 358.7193600268 2086.71352960845 357.2953600268 2085.01752960845 355.3433600268 2083.60952960845 C 353.3913600268 2082.20152960845 350.7833600268 2081.49752960845 347.5193600268 2081.49752960845 L 336.7673600268 2081.49752960845 L 336.7673600268 2107.41752960845 L 346.8473600268 2107.41752960845 Z M 384.9593600268 2107.32152960845 C 384.9593600268 2102.52152960845 385.8713600268 2097.97752960845 387.6953600268 2093.68952960845 C 389.5193600268 2089.40152960845 392.0633600268 2085.62552960845 395.3273600268 2082.36152960845 C 398.5913600268 2079.09752960845 402.3513600268 2076.52152960845 406.6073600268 2074.63352960845 C 410.8633600268 2072.74552960845 415.4233600268 2071.80152960845 420.2873600268 2071.80152960845 C 425.1513600268 2071.80152960845 429.7433600268 2072.74552960845 434.0633600268 2074.63352960845 C 438.3833600268 2076.52152960845 442.1753600268 2079.09752960845 445.4393600268 2082.36152960845 C 448.7033600268 2085.62552960845 451.2633600268 2089.40152960845 453.1193600268 2093.68952960845 C 454.9753600268 2097.97752960845 455.9033600268 2102.52152960845 455.9033600268 2107.32152960845 C 455.9033600268 2112.24952960845 454.9753600268 2116.84152960845 453.1193600268 2121.09752960845 C 451.2633600268 2125.35352960845 448.7033600268 2129.11352960845 445.4393600268 2132.37752960845 C 442.1753600268 2135.64152960845 438.3833600268 2138.18552960845 434.0633600268 2140.00952960845 C 429.7433600268 2141.83352960845 425.1513600268 2142.74552960845 420.2873600268 2142.74552960845 C 415.4233600268 2142.74552960845 410.8633600268 2141.84952960845 406.6073600268 2140.05752960845 C 402.3513600268 2138.26552960845 398.5913600268 2135.76952960845 395.3273600268 2132.56952960845 C 392.0633600268 2129.36952960845 389.5193600268 2125.60952960845 387.6953600268 2121.28952960845 C 385.8713600268 2116.96952960845 384.9593600268 2112.31352960845 384.9593600268 2107.32152960845 Z M 394.5593600268 2107.41752960845 C 394.5593600268 2111.06552960845 395.2313600268 2114.47352960845 396.5753600268 2117.64152960845 C 397.9193600268 2120.80952960845 399.7753600268 2123.60952960845 402.1433600268 2126.04152960845 C 404.5113600268 2128.47352960845 407.2633600268 2130.36152960845 410.3993600268 2131.70552960845 C 413.5353600268 2133.04952960845 416.9273600268 2133.72152960845 420.5753600268 2133.72152960845 C 425.3753600268 2133.72152960845 429.7113600268 2132.55352960845 433.5833600268 2130.21752960845 C 437.4553600268 2127.88152960845 440.5433600268 2124.71352960845 442.8473600268 2120.71352960845 C 445.1513600268 2116.71352960845 446.3033600268 2112.24952960845 446.3033600268 2107.32152960845 C 446.3033600268 2103.67352960845 445.6313600268 2100.23352960845 444.2873600268 2097.00152960845 C 442.9433600268 2093.76952960845 441.0873600268 2090.93752960845 438.7193600268 2088.50552960845 C 436.3513600268 2086.07352960845 433.5993600268 2084.16952960845 430.4633600268 2082.79352960845 C 427.3273600268 2081.41752960845 423.9673600268 2080.72952960845 420.3833600268 2080.72952960845 C 415.5193600268 2080.72952960845 411.1353600268 2081.94552960845 407.2313600268 2084.37752960845 C 403.3273600268 2086.80952960845 400.2393600268 2090.04152960845 397.9673600268 2094.07352960845 C 395.6953600268 2098.10552960845 394.5593600268 2102.55352960845 394.5593600268 2107.41752960845 Z M 531.7433600268 2144.18552960845 L 480.7673600268 2092.53752960845 L 480.9593600268 2141.97752960845 L 471.5513600268 2141.97752960845 L 471.5513600268 2070.45752960845 L 472.0313600268 2070.45752960845 L 522.9113600268 2122.87352960845 L 522.7193600268 2072.56952960845 L 532.0313600268 2072.56952960845 L 532.0313600268 2144.18552960845 L 531.7433600268 2144.18552960845 Z M 546.9113600268 2072.56952960845 L 592.9913600268 2072.56952960845 L 592.9913600268 2081.49752960845 L 574.3673600268 2081.49752960845 L 574.3673600268 2141.97752960845 L 565.0553600268 2141.97752960845 L 565.0553600268 2081.49752960845 L 546.9113600268 2081.49752960845 L 546.9113600268 2072.56952960845 Z M 607.8713600268 2072.56952960845 L 652.9913600268 2072.56952960845 L 652.9913600268 2081.49752960845 L 617.1833600268 2081.49752960845 L 617.1833600268 2102.61752960845 L 649.1513600268 2102.61752960845 L 649.1513600268 2111.54552960845 L 617.1833600268 2111.54552960845 L 617.1833600268 2132.95352960845 L 654.3353600268 2132.95352960845 L 654.3353600268 2141.97752960845 L 607.8713600268 2141.97752960845 L 607.8713600268 2072.56952960845 Z M 730.7513600268 2144.18552960845 L 679.7753600268 2092.53752960845 L 679.9673600268 2141.97752960845 L 670.5593600268 2141.97752960845 L 670.5593600268 2070.45752960845 L 671.0393600268 2070.45752960845 L 721.9193600268 2122.87352960845 L 721.7273600268 2072.56952960845 L 731.0393600268 2072.56952960845 L 731.0393600268 2144.18552960845 L 730.7513600268 2144.18552960845 Z M 751.0073600268 2141.97752960845 L 751.0073600268 2072.56952960845 L 770.0153600268 2072.56952960845 C 776.8633600268 2072.56952960845 782.6873600268 2073.60952960845 787.4873600268 2075.68952960845 C 792.2873600268 2077.76952960845 796.1753600268 2080.53752960845 799.1513600268 2083.99352960845 C 802.1273600268 2087.44952960845 804.3033600268 2091.27352960845 805.6793600268 2095.46552960845 C 807.0553600268 2099.65752960845 807.7433600268 2103.86552960845 807.7433600268 2108.08952960845 C 807.7433600268 2113.27352960845 806.8153600268 2117.96152960845 804.9593600268 2122.15352960845 C 803.1033600268 2126.34552960845 800.5753600268 2129.91352960845 797.3753600268 2132.85752960845 C 794.1753600268 2135.80152960845 790.5113600268 2138.05752960845 786.3833600268 2139.62552960845 C 782.2553600268 2141.19352960845 777.9193600268 2141.97752960845 773.3753600268 2141.97752960845 L 751.0073600268 2141.97752960845 Z M 760.3193600268 2132.95352960845 L 771.5513600268 2132.95352960845 C 776.6073600268 2132.95352960845 781.1353600268 2131.96152960845 785.1353600268 2129.97752960845 C 789.1353600268 2127.99352960845 792.2873600268 2125.09752960845 794.5913600268 2121.28952960845 C 796.8953600268 2117.48152960845 798.0473600268 2112.85752960845 798.0473600268 2107.41752960845 C 798.0473600268 2101.78552960845 796.8473600268 2097.04952960845 794.4473600268 2093.20952960845 C 792.0473600268 2089.36952960845 788.8793600268 2086.45752960845 784.9433600268 2084.47352960845 C 781.0073600268 2082.48952960845 776.8313600268 2081.49752960845 772.4153600268 2081.49752960845 L 760.3193600268 2081.49752960845 L 760.3193600268 2132.95352960845 Z M 853.7273600268 2141.97752960845 L 853.7273600268 2072.56952960845 L 872.7353600268 2072.56952960845 C 879.5833600268 2072.56952960845 885.4073600268 2073.60952960845 890.2073600268 2075.68952960845 C 895.0073600268 2077.76952960845 898.8953600268 2080.53752960845 901.8713600268 2083.99352960845 C 904.8473600268 2087.44952960845 907.0233600268 2091.27352960845 908.3993600268 2095.46552960845 C 909.7753600268 2099.65752960845 910.4633600268 2103.86552960845 910.4633600268 2108.08952960845 C 910.4633600268 2113.27352960845 909.5353600268 2117.96152960845 907.6793600268 2122.15352960845 C 905.8233600268 2126.34552960845 903.2953600268 2129.91352960845 900.0953600268 2132.85752960845 C 896.8953600268 2135.80152960845 893.2313600268 2138.05752960845 889.1033600268 2139.62552960845 C 884.9753600268 2141.19352960845 880.6393600268 2141.97752960845 876.0953600268 2141.97752960845 L 853.7273600268 2141.97752960845 Z M 863.0393600268 2132.95352960845 L 874.2713600268 2132.95352960845 C 879.3273600268 2132.95352960845 883.8553600268 2131.96152960845 887.8553600268 2129.97752960845 C 891.8553600268 2127.99352960845 895.0073600268 2125.09752960845 897.3113600268 2121.28952960845 C 899.6153600268 2117.48152960845 900.7673600268 2112.85752960845 900.7673600268 2107.41752960845 C 900.7673600268 2101.78552960845 899.5673600268 2097.04952960845 897.1673600268 2093.20952960845 C 894.7673600268 2089.36952960845 891.5993600268 2086.45752960845 887.6633600268 2084.47352960845 C 883.7273600268 2082.48952960845 879.5513600268 2081.49752960845 875.1353600268 2081.49752960845 L 863.0393600268 2081.49752960845 L 863.0393600268 2132.95352960845 Z M 926.1113600268 2072.56952960845 L 971.2313600268 2072.56952960845 L 971.2313600268 2081.49752960845 L 935.4233600268 2081.49752960845 L 935.4233600268 2102.61752960845 L 967.3913600268 2102.61752960845 L 967.3913600268 2111.54552960845 L 935.4233600268 2111.54552960845 L 935.4233600268 2132.95352960845 L 972.5753600268 2132.95352960845 L 972.5753600268 2141.97752960845 L 926.1113600268 2141.97752960845 L 926.1113600268 2072.56952960845 Z M 993.7913600268 2072.56952960845 L 1013.7593600268 2122.58552960845 L 1033.0553600268 2072.56952960845 L 1043.9993600268 2072.56952960845 L 1013.3753600268 2145.14552960845 L 982.7513600268 2072.56952960845 L 993.7913600268 2072.56952960845 Z M 1057.8233600268 2072.56952960845 L 1102.9433600268 2072.56952960845 L 1102.9433600268 2081.49752960845 L 1067.1353600268 2081.49752960845 L 1067.1353600268 2102.61752960845 L 1099.1033600268 2102.61752960845 L 1099.1033600268 2111.54552960845 L 1067.1353600268 2111.54552960845 L 1067.1353600268 2132.95352960845 L 1104.2873600268 2132.95352960845 L 1104.2873600268 2141.97752960845 L 1057.8233600268 2141.97752960845 L 1057.8233600268 2072.56952960845 Z M 1120.5113600268 2072.56952960845 L 1129.8233600268 2072.56952960845 L 1129.8233600268 2132.95352960845 L 1165.1513600268 2132.95352960845 L 1165.1513600268 2141.97752960845 L 1120.5113600268 2141.97752960845 L 1120.5113600268 2072.56952960845 Z M 1174.6553600268 2107.32152960845 C 1174.6553600268 2102.52152960845 1175.5673600268 2097.97752960845 1177.3913600268 2093.68952960845 C 1179.2153600268 2089.40152960845 1181.7593600268 2085.62552960845 1185.0233600268 2082.36152960845 C 1188.2873600268 2079.09752960845 1192.0473600268 2076.52152960845 1196.3033600268 2074.63352960845 C 1200.5593600268 2072.74552960845 1205.1193600268 2071.80152960845 1209.9833600268 2071.80152960845 C 1214.8473600268 2071.80152960845 1219.4393600268 2072.74552960845 1223.7593600268 2074.63352960845 C 1228.0793600268 2076.52152960845 1231.8713600268 2079.09752960845 1235.1353600268 2082.36152960845 C 1238.3993600268 2085.62552960845 1240.9593600268 2089.40152960845 1242.8153600268 2093.68952960845 C 1244.6713600268 2097.97752960845 1245.5993600268 2102.52152960845 1245.5993600268 2107.32152960845 C 1245.5993600268 2112.24952960845 1244.6713600268 2116.84152960845 1242.8153600268 2121.09752960845 C 1240.9593600268 2125.35352960845 1238.3993600268 2129.11352960845 1235.1353600268 2132.37752960845 C 1231.8713600268 2135.64152960845 1228.0793600268 2138.18552960845 1223.7593600268 2140.00952960845 C 1219.4393600268 2141.83352960845 1214.8473600268 2142.74552960845 1209.9833600268 2142.74552960845 C 1205.1193600268 2142.74552960845 1200.5593600268 2141.84952960845 1196.3033600268 2140.05752960845 C 1192.0473600268 2138.26552960845 1188.2873600268 2135.76952960845 1185.0233600268 2132.56952960845 C 1181.7593600268 2129.36952960845 1179.2153600268 2125.60952960845 1177.3913600268 2121.28952960845 C 1175.5673600268 2116.96952960845 1174.6553600268 2112.31352960845 1174.6553600268 2107.32152960845 Z M 1184.2553600268 2107.41752960845 C 1184.2553600268 2111.06552960845 1184.9273600268 2114.47352960845 1186.2713600268 2117.64152960845 C 1187.6153600268 2120.80952960845 1189.4713600268 2123.60952960845 1191.8393600268 2126.04152960845 C 1194.2073600268 2128.47352960845 1196.9593600268 2130.36152960845 1200.0953600268 2131.70552960845 C 1203.2313600268 2133.04952960845 1206.6233600268 2133.72152960845 1210.2713600268 2133.72152960845 C 1215.0713600268 2133.72152960845 1219.4073600268 2132.55352960845 1223.2793600268 2130.21752960845 C 1227.1513600268 2127.88152960845 1230.2393600268 2124.71352960845 1232.5433600268 2120.71352960845 C 1234.8473600268 2116.71352960845 1235.9993600268 2112.24952960845 1235.9993600268 2107.32152960845 C 1235.9993600268 2103.67352960845 1235.3273600268 2100.23352960845 1233.9833600268 2097.00152960845 C 1232.6393600268 2093.76952960845 1230.7833600268 2090.93752960845 1228.4153600268 2088.50552960845 C 1226.0473600268 2086.07352960845 1223.2953600268 2084.16952960845 1220.1593600268 2082.79352960845 C 1217.0233600268 2081.41752960845 1213.6633600268 2080.72952960845 1210.0793600268 2080.72952960845 C 1205.2153600268 2080.72952960845 1200.8313600268 2081.94552960845 1196.9273600268 2084.37752960845 C 1193.0233600268 2086.80952960845 1189.9353600268 2090.04152960845 1187.6633600268 2094.07352960845 C 1185.3913600268 2098.10552960845 1184.2553600268 2102.55352960845 1184.2553600268 2107.41752960845 Z M 1279.8713600268 2072.56952960845 C 1287.3593600268 2072.56952960845 1293.2473600268 2074.45752960845 1297.5353600268 2078.23352960845 C 1301.8233600268 2082.00952960845 1303.9673600268 2087.28952960845 1303.9673600268 2094.07352960845 C 1303.9673600268 2096.82552960845 1303.5513600268 2099.52952960845 1302.7193600268 2102.18552960845 C 1301.8873600268 2104.84152960845 1300.5593600268 2107.24152960845 1298.7353600268 2109.38552960845 C 1296.9113600268 2111.52952960845 1294.5273600268 2113.25752960845 1291.5833600268 2114.56952960845 C 1288.6393600268 2115.88152960845 1285.0553600268 2116.53752960845 1280.8313600268 2116.53752960845 L 1270.5593600268 2116.53752960845 L 1270.5593600268 2141.97752960845 L 1261.2473600268 2141.97752960845 L 1261.2473600268 2072.56952960845 L 1279.8713600268 2072.56952960845 Z M 1280.8313600268 2107.41752960845 C 1283.5193600268 2107.41752960845 1285.7593600268 2106.98552960845 1287.5513600268 2106.12152960845 C 1289.3433600268 2105.25752960845 1290.7673600268 2104.12152960845 1291.8233600268 2102.71352960845 C 1292.8793600268 2101.30552960845 1293.6313600268 2099.84952960845 1294.0793600268 2098.34552960845 C 1294.5273600268 2096.84152960845 1294.7513600268 2095.48152960845 1294.7513600268 2094.26552960845 C 1294.7513600268 2092.40952960845 1294.3193600268 2090.48952960845 1293.4553600268 2088.50552960845 C 1292.5913600268 2086.52152960845 1291.1833600268 2084.85752960845 1289.2313600268 2083.51352960845 C 1287.2793600268 2082.16952960845 1284.6393600268 2081.49752960845 1281.3113600268 2081.49752960845 L 1270.5593600268 2081.49752960845 L 1270.5593600268 2107.41752960845 L 1280.8313600268 2107.41752960845 Z M 1318.3673600268 2072.56952960845 L 1363.4873600268 2072.56952960845 L 1363.4873600268 2081.49752960845 L 1327.6793600268 2081.49752960845 L 1327.6793600268 2102.61752960845 L 1359.6473600268 2102.61752960845 L 1359.6473600268 2111.54552960845 L 1327.6793600268 2111.54552960845 L 1327.6793600268 2132.95352960845 L 1364.8313600268 2132.95352960845 L 1364.8313600268 2141.97752960845 L 1318.3673600268 2141.97752960845 L 1318.3673600268 2072.56952960845 Z M 1399.5833600268 2072.56952960845 C 1404.1913600268 2072.56952960845 1408.3513600268 2073.38552960845 1412.0633600268 2075.01752960845 C 1415.7753600268 2076.64952960845 1418.7193600268 2079.08152960845 1420.8953600268 2082.31352960845 C 1423.0713600268 2085.54552960845 1424.1593600268 2089.46552960845 1424.1593600268 2094.07352960845 C 1424.1593600268 2098.04152960845 1423.2793600268 2101.88152960845 1421.5193600268 2105.59352960845 C 1419.7593600268 2109.30552960845 1416.7993600268 2112.12152960845 1412.6393600268 2114.04152960845 L 1430.1113600268 2141.97752960845 L 1419.2633600268 2141.97752960845 L 1402.8473600268 2116.34552960845 C 1402.1433600268 2116.40952960845 1401.4073600268 2116.44152960845 1400.6393600268 2116.44152960845 L 1390.3673600268 2116.44152960845 L 1390.3673600268 2141.97752960845 L 1381.0553600268 2141.97752960845 L 1381.0553600268 2072.56952960845 L 1399.5833600268 2072.56952960845 Z M 1400.4473600268 2107.41752960845 C 1404.1593600268 2107.41752960845 1407.0233600268 2106.72952960845 1409.0393600268 2105.35352960845 C 1411.0553600268 2103.97752960845 1412.4793600268 2102.28152960845 1413.3113600268 2100.26552960845 C 1414.1433600268 2098.24952960845 1414.5593600268 2096.31352960845 1414.5593600268 2094.45752960845 C 1414.5593600268 2092.60152960845 1414.1113600268 2090.68152960845 1413.2153600268 2088.69752960845 C 1412.3193600268 2086.71352960845 1410.8953600268 2085.01752960845 1408.9433600268 2083.60952960845 C 1406.9913600268 2082.20152960845 1404.3833600268 2081.49752960845 1401.1193600268 2081.49752960845 L 1390.3673600268 2081.49752960845 L 1390.3673600268 2107.41752960845 L 1400.4473600268 2107.41752960845 Z" stroke-linecap="round" />
</g>
</svg>